<?xml version="1.0" standalone="no"?>
<!DOCTYPE svg PUBLIC "-//W3C//DTD SVG 20010904//EN"
 "http://www.w3.org/TR/2001/REC-SVG-20010904/DTD/svg10.dtd">
<svg version="1.0" xmlns="http://www.w3.org/2000/svg"
 width="200.000000pt" height="200.000000pt" viewBox="0 0 200.000000 200.000000"
 preserveAspectRatio="xMidYMid meet">

<g transform="translate(0.000000,200.000000) scale(0.100000,-0.100000)"
fill="#000000" stroke="none">
<path d="M1310 1489 c-14 -6 -50 -34 -80 -64 -48 -47 -61 -54 -109 -60 -37 -5
-62 -15 -84 -35 l-30 -27 21 -30 21 -30 -29 -28 c-16 -15 -27 -32 -25 -39 6
-16 -64 -62 -106 -70 -30 -5 -39 -2 -59 19 -13 14 -29 25 -37 25 -8 0 -13 12
-13 29 0 36 -32 77 -66 85 -25 7 -26 9 -21 59 l5 52 -50 -54 c-123 -134 -151
-306 -75 -465 115 -242 415 -317 628 -156 56 42 96 89 66 77 -11 -4 -20 0 -27
12 -14 26 -65 43 -96 31 -36 -14 -97 49 -114 118 -12 50 -11 52 21 97 18 25
37 45 43 45 5 0 22 12 37 26 26 25 28 25 59 9 26 -13 34 -14 47 -3 23 18 43
71 43 111 0 26 10 42 51 82 62 61 79 92 79 143 0 52 -36 66 -100 41z m74 -8
c7 -10 -68 -81 -86 -81 -6 0 -8 -3 -5 -7 4 -3 -1 -15 -10 -25 -14 -15 -14 -21
-4 -27 9 -6 2 -14 -24 -30 -20 -11 -39 -21 -43 -21 -5 0 -28 -20 -52 -45 -32
-33 -51 -45 -65 -41 -12 3 -29 -4 -46 -20 -21 -20 -28 -22 -37 -11 -9 11 -5
20 18 42 l30 28 -20 32 c-20 32 -20 32 0 50 11 10 46 22 77 26 51 7 62 13 113
64 52 51 88 72 132 74 9 1 19 -3 22 -8z m-297 -339 c-15 -16 -24 -32 -20 -36
4 -4 -6 -18 -22 -33 -68 -58 -95 -65 -95 -21 0 24 56 98 74 98 7 0 23 11 36
25 21 23 26 24 39 10 13 -13 12 -18 -12 -43z m-377 -146 c0 -3 -4 -8 -10 -11
-5 -3 -10 -1 -10 4 0 6 5 11 10 11 6 0 10 -2 10 -4z m83 -83 c-7 -2 -21 -2
-30 0 -10 3 -4 5 12 5 17 0 24 -2 18 -5z"/>
<path d="M1217 1339 c10 -10 10 -16 0 -28 -11 -14 -10 -14 6 -2 9 7 17 17 17
21 0 4 -8 11 -17 15 -14 5 -15 4 -6 -6z"/>
<path d="M881 1403 c-1 -16 -8 -23 -28 -26 l-28 -4 27 -2 c19 -1 28 -7 31 -23
l4 -23 2 23 c1 17 7 22 29 23 26 1 26 1 3 8 -13 3 -28 15 -32 26 -7 19 -8 19
-8 -2z"/>
<path d="M880 1180 c0 -5 5 -10 10 -10 6 0 10 5 10 10 0 6 -4 10 -10 10 -5 0
-10 -4 -10 -10z"/>
<path d="M1345 1120 c-3 -5 -1 -10 4 -10 6 0 11 5 11 10 0 6 -2 10 -4 10 -3 0
-8 -4 -11 -10z"/>
<path d="M1180 990 c0 -5 5 -10 11 -10 5 0 7 5 4 10 -3 6 -8 10 -11 10 -2 0
-4 -4 -4 -10z"/>
<path d="M1060 526 c0 -10 -14 -16 -42 -18 l-43 -3 -3 -47 -3 -48 50 0 51 0 0
65 c0 36 -2 65 -5 65 -3 0 -5 -6 -5 -14z m0 -71 c0 -34 -1 -35 -40 -35 -39 0
-40 1 -40 35 0 34 1 35 40 35 39 0 40 -1 40 -35z"/>
<path d="M485 519 c-4 -5 -4 -21 -1 -35 6 -21 12 -24 56 -24 44 0 50 -2 50
-21 0 -20 -4 -21 -55 -17 -30 3 -52 1 -49 -4 3 -4 30 -8 60 -8 41 0 56 4 61
16 11 30 -11 49 -61 52 -39 3 -46 6 -46 24 0 19 5 20 55 16 30 -3 52 -1 49 4
-8 12 -112 10 -119 -3z"/>
<path d="M627 503 c-4 -3 -7 -26 -7 -50 l0 -43 44 0 c38 0 45 -3 49 -22 2 -13
5 10 6 50 l1 72 -43 0 c-24 0 -47 -3 -50 -7z m83 -49 c0 -35 -1 -35 -37 -32
-35 3 -38 6 -41 36 -3 31 -2 32 37 32 40 0 41 -1 41 -36z"/>
<path d="M742 462 l-2 -53 48 3 47 3 1 50 2 50 -7 -45 c-6 -43 -7 -45 -43 -48
l-37 -3 -4 48 -3 48 -2 -53z"/>
<path d="M861 496 c-7 -8 -11 -30 -9 -48 3 -33 3 -33 58 -34 51 -1 52 -1 8 3
-33 3 -48 9 -48 19 0 10 12 14 45 14 37 0 45 3 45 18 0 10 -5 23 -12 30 -17
17 -73 15 -87 -2z m79 -21 c0 -10 -11 -15 -35 -15 -24 0 -35 5 -35 15 0 10 11
15 35 15 24 0 35 -5 35 -15z"/>
<path d="M1094 496 c-3 -8 -4 -31 -1 -52 l4 -39 1 43 c2 41 3 42 38 42 21 0
33 4 29 10 -9 15 -65 12 -71 -4z"/>
<path d="M1187 504 c-4 -4 -7 -27 -7 -51 l0 -43 51 0 50 0 -3 48 -3 47 -40 3
c-23 2 -44 0 -48 -4z m81 -46 c-3 -30 -6 -33 -40 -36 -37 -3 -38 -3 -38 32 0
35 1 36 41 36 39 0 40 -1 37 -32z"/>
<path d="M1302 458 c1 -51 2 -51 5 -10 4 41 5 42 39 42 33 0 34 -1 34 -40 0
-22 5 -40 10 -40 14 0 12 74 -2 88 -7 7 -29 12 -50 12 l-38 0 2 -52z"/>
<path d="M1421 496 c-7 -8 -11 -30 -9 -48 3 -31 5 -33 46 -36 54 -4 58 -29 5
-35 -33 -4 -32 -4 7 -3 l45 1 3 53 c2 31 -2 60 -9 68 -15 18 -73 18 -88 0z
m79 -41 c0 -33 -2 -35 -35 -35 -33 0 -35 2 -35 35 0 33 2 35 35 35 33 0 35 -2
35 -35z"/>
</g>
</svg>
